<svg width="152" height="31" viewBox="0 0 152 31" fill="none" xmlns="http://www.w3.org/2000/svg">
<path d="M33.986 26.7348C33.0266 27.9539 31.813 28.8972 30.3476 29.5603C28.8822 30.2233 27.3618 30.5537 25.7911 30.5537C24.2982 30.5537 22.8923 30.3145 21.5734 29.8382C20.2546 29.362 19.1074 28.6785 18.1343 27.7898C17.1612 26.9012 16.3964 25.8348 15.8354 24.5861C15.2768 23.3398 14.9951 21.9475 14.9951 20.4095C14.9951 18.8715 15.2745 17.4793 15.8354 16.2329C16.3941 14.9865 17.1612 13.9201 18.1343 13.0315C19.1074 12.1428 20.2523 11.4593 21.5734 10.9831C22.8923 10.5045 24.2982 10.2676 25.7911 10.2676C27.1764 10.2676 28.4357 10.5068 29.5691 10.9831C30.7025 11.4593 31.6619 12.1428 32.4473 13.0315C33.2326 13.9201 33.8394 14.9865 34.2653 16.2329C34.6912 17.4793 34.9041 18.8715 34.9041 20.4095V22.2802H20.9919C21.2323 23.4218 21.752 24.3287 22.5512 25.0054C23.3503 25.6821 24.3371 26.0194 25.5095 26.0194C26.494 26.0194 27.3275 25.8006 28.0075 25.3631C28.6876 24.9256 29.2806 24.3628 29.7866 23.6724L33.986 26.7348ZM28.9097 18.2221C28.9349 17.215 28.6028 16.3514 27.9091 15.6359C27.2153 14.9204 26.3223 14.5627 25.2301 14.5627C24.5638 14.5627 23.9776 14.6698 23.4716 14.8817C22.9656 15.0936 22.5328 15.3647 22.1733 15.6974C21.8139 16.0301 21.5345 16.4129 21.333 16.8504C21.1338 17.2879 21.0193 17.7459 20.9942 18.2221H28.9097Z" fill="#F2F2F2"/>
<path d="M48.8394 16.9868C48.5463 16.563 48.1319 16.212 47.6007 15.9318C47.0672 15.6538 46.4947 15.5148 45.8811 15.5148C44.363 15.5148 43.1815 15.966 42.3435 16.8683C41.5032 17.7706 41.0841 18.9509 41.0841 20.4092C41.0841 21.8675 41.5032 23.0478 42.3435 23.9501C43.1838 24.8524 44.363 25.3036 45.8811 25.3036C46.5474 25.3036 47.1198 25.1577 47.6007 24.8661C48.0815 24.5744 48.4937 24.2303 48.8394 23.8316L52.7983 27.9695C51.8641 28.9242 50.765 29.5941 49.5011 29.9792C48.2349 30.3643 47.0282 30.5557 45.8834 30.5557C44.3905 30.5557 42.9846 30.3164 41.6657 29.8402C40.3469 29.364 39.1997 28.6804 38.2266 27.7918C37.2535 26.9031 36.4887 25.8367 35.9277 24.5881C35.369 23.3417 35.0874 21.9495 35.0874 20.4115C35.0874 18.8734 35.3667 17.4812 35.9277 16.2348C36.4864 14.9885 37.2535 13.9221 38.2266 13.0334C39.1997 12.1448 40.3446 11.4612 41.6657 10.985C42.9846 10.5065 44.3905 10.2695 45.8834 10.2695C47.0282 10.2695 48.2349 10.4632 49.5011 10.846C50.7673 11.2311 51.8664 11.901 52.7983 12.8557L48.8394 16.9868Z" fill="#F2F2F2"/>
<path d="M59.0124 0V13.3684H59.0925C59.2253 12.997 59.452 12.6256 59.7725 12.2542C60.0931 11.8828 60.4778 11.5524 60.9311 11.2584C61.3845 10.9668 61.918 10.7275 62.5294 10.543C63.143 10.3584 63.8093 10.265 64.5283 10.265C66.0463 10.265 67.2736 10.4974 68.2055 10.9599C69.1374 11.4248 69.8656 12.0673 70.3853 12.8899C70.9051 13.7125 71.2577 14.6809 71.4455 15.7951C71.6309 16.9093 71.7248 18.1169 71.7248 19.4157V30.0772H65.7281V20.6074C65.7281 20.0515 65.7075 19.4727 65.6685 18.878C65.6296 18.281 65.5083 17.7319 65.3091 17.226C65.1099 16.7225 64.803 16.31 64.3886 15.9933C63.9742 15.6743 63.3811 15.5171 62.6095 15.5171C61.8356 15.5171 61.2105 15.6561 60.7296 15.9341C60.2511 16.2121 59.8825 16.5835 59.6306 17.0483C59.3764 17.5131 59.2116 18.0372 59.1314 18.6205C59.0513 19.2038 59.0124 19.8145 59.0124 20.4502V30.0772H53.0156V0H59.0124Z" fill="#F2F2F2"/>
<path d="M76.8815 21.9609C76.8815 22.7835 77.0624 23.5331 77.4219 24.2076C77.7814 24.8843 78.2553 25.4608 78.8415 25.9393C79.4277 26.4155 80.1077 26.7892 80.8793 27.0535C81.6533 27.3201 82.4524 27.4523 83.279 27.4523C84.3986 27.4523 85.3717 27.1948 86.1983 26.6753C87.0249 26.158 87.7828 25.4768 88.4766 24.6268L91.1945 26.6958C89.1956 29.2683 86.3975 30.5557 82.7981 30.5557C81.3052 30.5557 79.952 30.3028 78.7407 29.7992C77.5272 29.2956 76.5014 28.6007 75.6634 27.7098C74.8231 26.8211 74.1774 25.773 73.724 24.5676C73.2706 23.36 73.0439 22.0543 73.0439 20.6485C73.0439 19.2426 73.2889 17.9369 73.7835 16.7293C74.2758 15.5239 74.9559 14.4758 75.8214 13.5872C76.6869 12.6985 77.7195 12.0035 78.9193 11.4977C80.1192 10.9941 81.4243 10.7412 82.837 10.7412C84.5154 10.7412 85.935 11.0329 87.0936 11.6162C88.2522 12.1995 89.2047 12.9628 89.9512 13.9039C90.6976 14.8449 91.2357 15.9067 91.57 17.087C91.902 18.2673 92.0692 19.4682 92.0692 20.6872V21.9609H76.8815ZM88.2362 19.0967C88.2087 18.3015 88.0828 17.5724 87.8561 16.9093C87.6294 16.2462 87.2905 15.6698 86.8372 15.1776C86.3838 14.6877 85.8182 14.3026 85.1382 14.0246C84.4582 13.7467 83.6659 13.6077 82.7592 13.6077C81.8799 13.6077 81.074 13.774 80.3413 14.1044C79.6085 14.4371 78.988 14.8677 78.482 15.3963C77.976 15.9272 77.5821 16.5174 77.3028 17.1668C77.0235 17.8162 76.8838 18.4587 76.8838 19.0967H88.2362Z" fill="#F2F2F2"/>
<path d="M104.147 14.324H98.9908V22.8777C98.9908 23.4086 99.0045 23.9327 99.0297 24.4499C99.0572 24.9672 99.1557 25.432 99.3297 25.8421C99.5037 26.2546 99.7693 26.585 100.129 26.8379C100.488 27.0908 101.015 27.2161 101.709 27.2161C102.135 27.2161 102.574 27.1774 103.028 27.0976C103.481 27.0179 103.893 26.8721 104.266 26.6602V29.9231C103.84 30.1623 103.286 30.3264 102.606 30.4198C101.926 30.5132 101.4 30.5588 101.026 30.5588C99.6411 30.5588 98.5672 30.3651 97.807 29.9823C97.0468 29.5995 96.4881 29.1005 96.1286 28.4898C95.7692 27.8792 95.5562 27.1979 95.4898 26.4414C95.4234 25.6849 95.3891 24.9239 95.3891 24.1537V14.324H91.231V11.2205H95.3891V5.92969H98.9862V11.2205H104.143V14.324H104.147Z" fill="#F2F2F2"/>
<path d="M109.105 21.9609C109.105 22.7835 109.286 23.5331 109.645 24.2076C110.004 24.8843 110.478 25.4608 111.065 25.9393C111.651 26.4155 112.331 26.7892 113.102 27.0535C113.876 27.3201 114.676 27.4523 115.502 27.4523C116.622 27.4523 117.595 27.1948 118.421 26.6753C119.248 26.158 120.006 25.4768 120.7 24.6268L123.418 26.6958C121.419 29.2683 118.621 30.5557 115.021 30.5557C113.528 30.5557 112.175 30.3028 110.964 29.7992C109.75 29.2956 108.725 28.6007 107.887 27.7098C107.046 26.8211 106.4 25.773 105.947 24.5676C105.494 23.36 105.267 22.0543 105.267 20.6485C105.267 19.2426 105.512 17.9369 106.007 16.7293C106.499 15.5239 107.179 14.4758 108.045 13.5872C108.91 12.6985 109.943 12.0035 111.142 11.4977C112.342 10.9941 113.647 10.7412 115.06 10.7412C116.739 10.7412 118.158 11.0329 119.317 11.6162C120.475 12.1995 121.428 12.9628 122.174 13.9039C122.921 14.8449 123.459 15.9067 123.793 17.087C124.125 18.2673 124.292 19.4682 124.292 20.6872V21.9609H109.105ZM120.457 19.0967C120.43 18.3015 120.304 17.5724 120.077 16.9093C119.85 16.2462 119.511 15.6698 119.058 15.1776C118.605 14.6877 118.039 14.3026 117.359 14.0246C116.679 13.7467 115.887 13.6077 114.98 13.6077C114.101 13.6077 113.295 13.774 112.562 14.1044C111.829 14.4371 111.209 14.8677 110.703 15.3963C110.197 15.9272 109.803 16.5174 109.524 17.1668C109.244 17.8162 109.105 18.4587 109.105 19.0967H120.457Z" fill="#F2F2F2"/>
<path d="M126.216 11.2194H129.813V14.1246H129.893C130.134 13.621 130.452 13.163 130.852 12.7529C131.253 12.3427 131.697 11.9895 132.192 11.6979C132.684 11.4062 133.225 11.1738 133.811 11.0006C134.397 10.8275 134.983 10.7432 135.569 10.7432C136.155 10.7432 136.689 10.8229 137.167 10.9824L137.007 14.8423C136.714 14.7626 136.421 14.6965 136.128 14.6441C135.835 14.5917 135.542 14.5643 135.249 14.5643C133.49 14.5643 132.144 15.0565 131.212 16.0363C130.278 17.0184 129.813 18.5427 129.813 20.6117V30.0769H126.216V11.2194Z" fill="#F2F2F2"/>
<path d="M148.682 15.9552C148.256 15.4243 147.73 14.98 147.102 14.6223C146.475 14.2645 145.71 14.0845 144.804 14.0845C143.95 14.0845 143.21 14.2645 142.585 14.6223C141.957 14.98 141.646 15.5041 141.646 16.1945C141.646 16.7505 141.827 17.2039 142.186 17.548C142.546 17.892 142.972 18.1723 143.466 18.3842C143.959 18.5961 144.485 18.7556 145.046 18.8604C145.605 18.9675 146.086 19.0587 146.487 19.1384C147.26 19.3253 147.986 19.5508 148.666 19.8151C149.346 20.0817 149.933 20.4258 150.425 20.8496C150.917 21.2734 151.304 21.7907 151.583 22.4013C151.863 23.012 152.002 23.7548 152.002 24.6298C152.002 25.6916 151.776 26.5985 151.322 27.355C150.869 28.1114 150.283 28.7267 149.564 29.2052C148.845 29.6814 148.025 30.0277 147.105 30.2396C146.184 30.4515 145.259 30.5586 144.327 30.5586C142.754 30.5586 141.376 30.3194 140.19 29.8432C139.004 29.3669 137.944 28.4897 137.012 27.2182L139.73 24.9898C140.316 25.5731 140.968 26.0903 141.69 26.5415C142.409 26.9927 143.288 27.2182 144.327 27.2182C144.781 27.2182 145.241 27.1727 145.706 27.0792C146.173 26.9858 146.585 26.84 146.944 26.6418C147.304 26.4435 147.597 26.1906 147.824 25.8853C148.05 25.5799 148.163 25.229 148.163 24.8303C148.163 24.2994 147.995 23.8619 147.663 23.5178C147.329 23.1738 146.931 22.9003 146.464 22.7021C145.997 22.5039 145.504 22.3444 144.984 22.2259C144.465 22.1074 144.004 22.0071 143.606 21.9274C142.832 21.7428 142.099 21.5286 141.408 21.2917C140.714 21.0524 140.103 20.7357 139.569 20.3369C139.036 19.9382 138.61 19.4346 138.289 18.8262C137.969 18.2156 137.811 17.4614 137.811 16.5591C137.811 15.5793 138.017 14.7225 138.431 13.9934C138.843 13.2642 139.391 12.6604 140.071 12.1842C140.751 11.7057 141.522 11.348 142.39 11.1087C143.256 10.8695 144.13 10.751 145.01 10.751C146.29 10.751 147.515 10.9902 148.687 11.4664C149.859 11.9449 150.791 12.7402 151.485 13.8544L148.682 15.9552Z" fill="#F2F2F2"/>
<path d="M7.50154 7.45777H0.00732422V1.54715C0.00732422 0.692686 0.703396 0 1.56204 0H7.50154V7.45777Z" fill="#EFEFEF"/>
<path d="M7.50146 7.45703H14.998V13.3677C14.998 14.2221 14.3019 14.9148 13.4433 14.9148H7.50146V7.45703Z" fill="white"/>
<path d="M14.9907 23.5101V29.6076C14.9197 30.0724 14.7915 30.5008 14.3542 30.772C14.0977 30.9315 13.8024 30.9269 13.5253 30.9998H5.53422C5.28923 30.9383 5.03507 30.9383 4.78778 30.9201C3.849 30.8517 3.08195 30.3846 2.3584 29.856C1.40817 29.1633 0.728127 28.2473 0.277055 27.1627C0.0961678 26.7298 0.0892986 26.2718 0.0412147 25.8183C0.0343456 25.7545 0.0572427 25.6862 0.00686912 25.6292C0.00457942 22.1339 0.00686912 18.6386 0 15.1432C0 14.9427 0.0366353 14.8857 0.251868 14.8857C2.67896 14.8949 5.10605 14.8926 7.53314 14.8926C7.7209 15.0338 7.69571 15.2412 7.698 15.4349C7.70258 17.1894 7.70029 18.9416 7.70029 20.6961C7.70029 21.2863 7.69571 21.8741 7.70029 22.4643C7.70487 22.9473 8.0987 23.3415 8.58412 23.3415C10.5281 23.3461 12.4698 23.3415 14.4137 23.3461C14.6175 23.3461 14.8396 23.3119 14.9907 23.5101Z" fill="#EFEFEF"/>
</svg>
